<svg width="18" height="18" viewBox="0 0 18 18" fill="none" xmlns="http://www.w3.org/2000/svg">
<g clip-path="url(#clip0)">
<path d="M12.5231 5.37422C12.7693 5.12853 12.7693 4.72335 12.5231 4.46688C12.2768 4.22119 11.8708 4.22119 11.6137 4.46688L4.88601 11.1798C4.08358 11.9804 4.08358 13.2929 4.88601 14.0931C5.68843 14.8937 7.00385 14.8937 7.80573 14.0931L14.8542 7.06012C14.9185 7.02833 14.9827 6.98523 15.047 6.93189C15.9882 5.99276 18.491 3.49543 16.0843 1.09454C15.1647 0.176967 14.0631 -0.175407 12.8973 0.0805221C11.9453 0.283111 10.9614 0.891415 9.97757 1.87364L2.34104 9.49334C1.43169 10.4007 0.950564 11.6598 1.00402 13.0365C1.05748 14.349 1.60287 15.6297 2.51221 16.5371C3.42156 17.4444 4.68351 17.967 5.98813 17.9994H6.09505C7.39966 17.9994 8.5979 17.5085 9.48564 16.6227L17.0153 9.10971C17.2615 8.86402 17.2615 8.45885 17.0153 8.20238C16.769 7.95669 16.3629 7.95669 16.1059 8.20238L8.5763 15.7154C7.91319 16.377 7.00385 16.7294 6.00919 16.7186C5.03613 16.6971 4.09492 16.3027 3.42102 15.6303C1.97708 14.1895 1.90203 11.7455 3.24984 10.4012L10.8864 2.78152C11.678 1.99164 12.4691 1.49002 13.1646 1.34077C13.9028 1.18075 14.5659 1.39411 15.1755 2.01319C15.7744 2.61072 15.9455 3.16568 15.7317 3.83811C15.5821 4.31818 15.2398 4.85213 14.662 5.49222L14.5335 5.58812L6.90773 13.197C6.60804 13.4961 6.1053 13.4961 5.80615 13.197C5.50646 12.898 5.50646 12.3964 5.80615 12.0979L12.5231 5.37422Z" fill="#333333"/>
</g>
<defs>
<clipPath id="clip0">
<rect width="18" height="18" fill="white"/>
</clipPath>
</defs>
</svg>
